<?xml version="1.0" encoding="utf-8"?>
<!-- Generator: Adobe Illustrator 16.0.0, SVG Export Plug-In . SVG Version: 6.00 Build 0)  -->
<!DOCTYPE svg PUBLIC "-//W3C//DTD SVG 1.1//EN" "http://www.w3.org/Graphics/SVG/1.1/DTD/svg11.dtd">
<svg version="1.1" xmlns="http://www.w3.org/2000/svg" xmlns:xlink="http://www.w3.org/1999/xlink" x="0px" y="0px" width="1000px"
	 height="300px" viewBox="0 0 1000 300" enable-background="new 0 0 1000 300" xml:space="preserve">
<g id="Layer_3">
</g>
<g id="Layer_1">
</g>
<g id="Layer_4">
	<linearGradient id="SVGID_1_" gradientUnits="userSpaceOnUse" x1="499.8604" y1="85.644" x2="499.8604" y2="301.832">
		<stop  offset="0" style="stop-color:#787878;stop-opacity:0"/>
		<stop  offset="0.3891" style="stop-color:#787878;stop-opacity:0.5"/>
		<stop  offset="1" style="stop-color:#00FFC8"/>
	</linearGradient>
	<path fill="url(#SVGID_1_)" d="M82.666,250.644v-41.333 M237.674,241.142v-41.333 M176.674,212.311v-41.333 M350.341,277.186
		V255.73 M325.674,198.977v-41.333 M465.674,248.977v-41.333 M416.674,164.666v-41.333 M575.341,290.363v-18.718 M552.341,223.311
		v-41.333 M622.008,178.31v-41.333 M216.674,147.644v-41.333 M682.341,255.311v-41.333 M717.674,201.479v-41.333 M763.007,281.644
		v-19.333 M812.672,212.311v-41.333 M862.007,281.936v-38.958 M914.006,228.311v-41.333 M749.674,144v-41.333 M404.673,215.48
		v-15.671 M488.761,126.977V85.644 M404.673,215.48v-15.671 M358.674,117.809v-15.671 M266.174,167.48v-15.671 M287.674,255.73
		v-15.671 M157.924,272.853v-15.671 M127.424,202.48v-15.671 M518.004,178.814v-15.671 M582.007,125.644v-15.671 M634.67,247.895
		v-15.671 M693.337,157.835v-15.671 M769.674,215.48v-15.671 M850.67,180.813v-15.671 M941.337,277.332v-16.02 M796.928,121.982
		v-15.671 M450.673,124.48v-15.671 M5.721,301.832h988.278v-1.582c-24.71,0-24.71-24-49.421-24s-24.711,24-49.422,24
		c-24.707,0-24.707-24-49.414-24c-24.708,0-24.708,24-49.416,24c-24.707,0-24.707-24-49.413-24s-24.706,24-49.413,24
		c-24.708,0-24.708-24-49.416-24c-24.707,0-24.707,24-49.413,24c-24.708,0-24.708-24-49.415-24s-24.707,24-49.414,24
		c-24.706,0-24.706-24-49.412-24c-24.705,0-24.705,24-49.411,24c-24.704,0-24.704-24-49.409-24c-24.706,0-24.706,24-49.412,24
		c-24.705,0-24.705-24-49.409-24c-24.707,0-24.707,24-49.414,24c-24.705,0-24.705-24-49.409-24c-24.703,0-24.703,24-49.406,24
		c-24.706,0-24.706-24-49.412-24s-24.706,24-49.412,24 M895.928,268.201c-4.317,0-7.816,3.5-7.816,7.817s3.499,7.817,7.816,7.817
		s7.816-3.5,7.816-7.817S900.245,268.201,895.928,268.201z M796.928,268.201c-4.317,0-7.816,3.5-7.816,7.817
		s3.499,7.817,7.816,7.817s7.816-3.5,7.816-7.817S801.245,268.201,796.928,268.201z M697.928,268.201
		c-4.317,0-7.816,3.5-7.816,7.817s3.499,7.817,7.816,7.817s7.816-3.5,7.816-7.817S702.245,268.201,697.928,268.201z
		 M598.928,268.201c-4.317,0-7.816,3.5-7.816,7.817s3.499,7.817,7.816,7.817s7.816-3.5,7.816-7.817S603.245,268.201,598.928,268.201
		z M499.928,268.201c-4.317,0-7.816,3.5-7.816,7.817s3.499,7.817,7.816,7.817s7.816-3.5,7.816-7.817
		S504.245,268.201,499.928,268.201z M400.928,268.201c-4.317,0-7.816,3.5-7.816,7.817s3.499,7.817,7.816,7.817
		s7.816-3.5,7.816-7.817S405.245,268.201,400.928,268.201z M301.928,268.201c-4.317,0-7.817,3.5-7.817,7.817s3.5,7.817,7.817,7.817
		s7.817-3.5,7.817-7.817S306.245,268.201,301.928,268.201z M202.928,268.201c-4.317,0-7.817,3.5-7.817,7.817s3.5,7.817,7.817,7.817
		s7.817-3.5,7.817-7.817S207.245,268.201,202.928,268.201z M103.928,268.201c-4.317,0-7.817,3.5-7.817,7.817s3.5,7.817,7.817,7.817
		s7.817-3.5,7.817-7.817S108.245,268.201,103.928,268.201z M847.341,235.592c-2.467,0-4.467,2-4.467,4.467s2,4.467,4.467,4.467
		s4.467-2,4.467-4.467S849.808,235.592,847.341,235.592z M748.341,235.592c-2.467,0-4.467,2-4.467,4.467s2,4.467,4.467,4.467
		s4.467-2,4.467-4.467S750.808,235.592,748.341,235.592z M649.341,235.592c-2.467,0-4.467,2-4.467,4.467s2,4.467,4.467,4.467
		s4.467-2,4.467-4.467S651.808,235.592,649.341,235.592z M550.341,235.592c-2.467,0-4.467,2-4.467,4.467s2,4.467,4.467,4.467
		s4.467-2,4.467-4.467S552.808,235.592,550.341,235.592z M451.341,235.592c-2.467,0-4.467,2-4.467,4.467s2,4.467,4.467,4.467
		s4.467-2,4.467-4.467S453.808,235.592,451.341,235.592z M352.341,235.592c-2.467,0-4.467,2-4.467,4.467s2,4.467,4.467,4.467
		s4.467-2,4.467-4.467S354.808,235.592,352.341,235.592z M253.341,235.592c-2.467,0-4.467,2-4.467,4.467s2,4.467,4.467,4.467
		s4.467-2,4.467-4.467S255.808,235.592,253.341,235.592z M154.341,235.592c-2.467,0-4.467,2-4.467,4.467s2,4.467,4.467,4.467
		s4.467-2,4.467-4.467S156.808,235.592,154.341,235.592z"/>
</g>
</svg>
